
<svg width="974" height="1934" viewBox="0 0 974 1934" fill="none" xmlns="http://www.w3.org/2000/svg">
<path d="M486.6 972.896C218.281 972.896 0 754.683 0 486.448C0 218.213 218.281 0 486.6 0C754.919 0 973.2 218.213 973.2 486.448C973.2 754.683 754.919 972.896 486.6 972.896ZM486.6 23.7446C231.424 23.7446 23.752 231.272 23.752 486.448C23.752 741.623 231.345 949.151 486.6 949.151C741.855 949.151 949.448 741.623 949.448 486.448C949.448 231.272 741.776 23.7446 486.6 23.7446Z" fill="black"/>
<path d="M488.183 1933.13C750.366 1933.13 962.907 1720.65 962.907 1458.55C962.907 1196.45 750.366 983.977 488.183 983.977C226 983.977 13.459 1196.45 13.459 1458.55C13.459 1720.65 226 1933.13 488.183 1933.13Z" fill="black"/>
</svg>
