<svg width="1002" height="1002" viewBox="0 0 1002 1002" fill="none" xmlns="http://www.w3.org/2000/svg">
<rect width="1002" height="1002" rx="36" fill="white"/>
<g clip-path="url(#clip0_70_43)">
<path d="M125.492 206.873H143.492L205.247 301.022C209.808 308.037 215.106 318.456 215.106 318.456H215.492V206.873H231.422V342.308H213.983L151.843 247.984C147.492 241.355 141.808 231.112 141.808 231.112H141.422V342.308H125.492V206.873Z" fill="black"/>
<path d="M244.088 293.445C244.088 265.032 262.649 241.916 290.509 241.916C319.877 241.916 335.597 264.646 335.597 297.023H259.807C260.93 316.912 271.737 332.066 291.456 332.066C305.667 332.066 315.141 325.261 318.544 312.001H333.526C328.965 333.013 313.632 344.974 291.456 344.974C261.526 344.974 244.088 321.858 244.088 293.445ZM260.193 285.482H319.105C318.158 265.979 308.123 254.053 290.509 254.053C272.895 254.053 262.474 267.698 260.193 285.482Z" fill="black"/>
<path d="M334.088 244.371H348.298V213.503H363.632V244.371H382.579V256.859H363.632V320.49C363.632 327.295 367.246 329.575 373.491 329.575C376.509 329.575 379.947 328.803 381.632 328.242H382.193V341.502C378.579 342.273 374.439 342.835 369.877 342.835C357.386 342.835 348.263 337.713 348.263 323.893V256.824H334.053V244.336L334.088 244.371Z" fill="black"/>
<path d="M497.176 326.032L578.264 221.851V221.29H501.913V206.908H599.316V220.168L517.071 326.418V326.979H602.509V342.308H497.176V326.032Z" fill="black"/>
<path d="M604.543 293.445C604.543 265.032 623.104 241.916 650.964 241.916C680.332 241.916 696.052 264.646 696.052 297.023H620.262C621.385 316.912 632.192 332.066 651.911 332.066C666.122 332.066 675.596 325.261 678.999 312.001H693.982C689.42 333.013 674.087 344.974 651.911 344.974C621.982 344.974 604.543 321.858 604.543 293.445ZM620.648 285.482H679.561C678.613 265.979 668.578 254.053 650.964 254.053C633.35 254.053 622.929 267.698 620.648 285.482Z" fill="black"/>
<path d="M720.228 260.683H720.614C726.474 251.212 736.719 243.249 749.807 243.249C752.649 243.249 754.158 243.635 756.053 244.371V259.139H755.491C753.21 258.367 751.702 258.192 748.684 258.192C733.526 258.192 720.263 269.557 720.263 287.938V342.308H704.93V244.371H720.263V260.647L720.228 260.683Z" fill="black"/>
<path d="M754.334 293.445C754.334 265.032 772.509 241.916 801.702 241.916C830.895 241.916 848.895 265.032 848.895 293.445C848.895 321.858 831.071 344.974 801.702 344.974C772.334 344.974 754.334 321.858 754.334 293.445ZM833.141 293.445C833.141 271.837 822.545 254.614 801.702 254.614C780.86 254.614 770.053 271.837 770.053 293.445C770.053 315.053 780.86 332.101 801.702 332.101C822.545 332.101 833.141 315.053 833.141 293.445Z" fill="black"/>
<path d="M672.649 501.175C553.737 501.175 457 404.466 457 285.588C457 166.709 553.737 70 672.649 70C791.561 70 888.298 166.709 888.298 285.588C888.298 404.466 791.561 501.175 672.649 501.175ZM672.649 80.5233C559.561 80.5233 467.526 172.497 467.526 285.588C467.526 398.678 559.526 490.652 672.649 490.652C785.772 490.652 877.772 398.678 877.772 285.588C877.772 172.497 785.737 80.5233 672.649 80.5233Z" fill="black"/>
<path d="M673.351 926.738C789.544 926.738 883.737 832.572 883.737 716.412C883.737 600.252 789.544 506.086 673.351 506.086C557.158 506.086 462.965 600.252 462.965 716.412C462.965 832.572 557.158 926.738 673.351 926.738Z" fill="black"/>
<path d="M673.35 932C554.438 932 457.701 835.291 457.701 716.412C457.701 597.534 554.438 500.825 673.35 500.825C792.263 500.825 888.999 597.534 888.999 716.412C888.999 835.291 792.263 932 673.35 932ZM673.35 511.348C560.263 511.348 468.227 603.322 468.227 716.412C468.227 829.503 560.227 921.477 673.35 921.477C786.473 921.477 878.473 829.503 878.473 716.412C878.473 603.322 786.438 511.348 673.35 511.348Z" fill="black"/>
<path d="M113 637.698H162.263C203 637.698 222.333 665.339 222.333 705.889C222.333 746.439 201.667 773.133 160.93 773.133H113V637.698ZM160.368 758.19C192.193 758.19 204.895 737.74 204.895 705.924C204.895 674.109 193.526 652.501 161.702 652.501H130.053V758.19H160.368Z" fill="black"/>
<path d="M294.088 759.523H293.913C288.053 767.1 277.983 775.062 261.316 775.062C242.755 775.062 228.158 766.363 228.158 747.772C228.158 724.656 246.334 719.92 270.79 716.132C284.614 714.062 294.299 712.729 294.299 702.101C294.299 691.472 286.334 684.877 272.334 684.877C256.404 684.877 248.474 691.682 247.877 706.485H233.106C233.667 687.543 246.193 673.337 272.123 673.337C292.965 673.337 308.299 681.089 308.299 704.416V750.999C308.299 758.962 310.193 763.311 318.72 761.417H319.281V772.607C317.386 773.379 314.93 774.115 310.93 774.115C300.895 774.115 295.597 769.555 294.053 759.523H294.088ZM294.474 736.968V720.306C289.351 723.533 280.439 725.989 272.123 727.497C256.79 730.338 244.474 733.004 244.474 747.386C244.474 760.47 254.72 763.311 264.755 763.311C285.211 763.311 294.509 748.333 294.509 736.968H294.474Z" fill="black"/>
<path d="M318.473 803.44V789.795H319.245C321.315 790.917 324.543 791.864 329.666 791.864C336.122 791.864 340.473 789.409 344.263 779.938L348.052 770.292L309.771 675.196H326.438L349.561 736.196C352.578 744.334 356.193 755.313 356.193 755.313H356.578C356.578 755.313 359.982 744.334 363.035 736.196L385.385 675.196H401.666L359.807 781.096C351.842 801.37 344.263 805.545 332.333 805.545C326.473 805.545 322.684 805.159 318.508 803.475L318.473 803.44Z" fill="black"/>
<path d="M497.912 756.857L579 652.676V652.115H502.649V637.733H600.052V650.992L517.807 757.243V757.804H603.245V773.133H497.912V756.857Z" fill="white"/>
<path d="M605.246 724.27C605.246 695.857 623.808 672.74 651.667 672.74C681.036 672.74 696.755 695.471 696.755 727.848H620.965C622.088 747.737 632.895 762.89 652.615 762.89C666.825 762.89 676.299 756.085 679.702 742.826H694.685C690.123 763.837 674.79 775.799 652.615 775.799C622.685 775.799 605.246 752.683 605.246 724.27ZM621.351 716.307H680.264C679.316 696.804 669.281 684.877 651.667 684.877C634.053 684.877 623.632 698.523 621.351 716.307Z" fill="white"/>
<path d="M720.964 691.507H721.35C727.21 682.036 737.455 674.073 750.543 674.073C753.385 674.073 754.894 674.459 756.789 675.196V689.964H756.227C753.947 689.192 752.438 689.017 749.42 689.017C734.263 689.017 720.999 700.382 720.999 718.762V773.133H705.666V675.196H720.999V691.472L720.964 691.507Z" fill="white"/>
<path d="M755.035 724.27C755.035 695.857 773.211 672.74 802.404 672.74C831.597 672.74 849.597 695.857 849.597 724.27C849.597 752.683 831.772 775.799 802.404 775.799C773.035 775.799 755.035 752.683 755.035 724.27ZM833.877 724.27C833.877 702.662 823.281 685.439 802.439 685.439C781.597 685.439 770.79 702.662 770.79 724.27C770.79 745.878 781.597 762.925 802.439 762.925C823.281 762.925 833.877 745.878 833.877 724.27Z" fill="white"/>
<path d="M121.947 495.914H142.368V499.246H125.737V508.612H139.596V511.804H125.737V525.975H121.947V495.879V495.914Z" fill="black"/>
<path d="M199.947 495.914H214.017C219.316 495.914 222.895 499.246 222.895 504.157C222.895 507.805 221.281 510.436 217.667 511.593V511.734C220.754 512.821 221.702 514.926 222.017 519.381C222.368 524.221 222.86 525.449 223.421 525.8V525.975H219.351C218.719 525.414 218.579 524.292 218.263 519.24C217.982 514.821 216.193 513.277 212.158 513.277H203.772V525.975H199.982V495.879L199.947 495.914ZM203.737 510.225H212.649C216.86 510.225 218.965 508.121 218.965 504.718C218.965 501.07 217.281 499.211 212.86 499.211H203.737V510.225Z" fill="black"/>
<path d="M280.264 510.962C280.264 501.947 285.913 495.282 295.001 495.282C304.088 495.282 309.737 501.982 309.737 510.962C309.737 519.942 304.088 526.642 295.001 526.642C285.913 526.642 280.264 519.942 280.264 510.962ZM305.843 510.962C305.843 503.876 302.053 498.545 295.001 498.545C287.948 498.545 284.158 503.876 284.158 510.962C284.158 518.048 287.948 523.344 295.001 523.344C302.053 523.344 305.843 518.048 305.843 510.962Z" fill="black"/>
<path d="M368.404 495.914H373.246L383.001 520.889H383.071L392.755 495.914H397.667V526.01H394.053V501.281H393.983C393.983 501.281 393.176 503.631 392.65 505.069L384.404 526.01H381.492L373.246 505.069C372.65 503.561 371.913 501.281 371.913 501.281H371.843V526.01H368.439V495.914H368.404Z" fill="black"/>
</g>
<defs>
<clipPath id="clip0_70_43">
<rect width="776" height="862" fill="white" transform="translate(113 70)"/>
</clipPath>
</defs>
</svg>
