<svg width="1002" height="1002" viewBox="0 0 1002 1002" fill="none" xmlns="http://www.w3.org/2000/svg">
<rect width="1002" height="1002" rx="36" fill="white"/>
<path d="M500.999 503.941C376.38 503.941 275 402.593 275 278.012C275 153.432 376.38 52.0835 500.999 52.0835C625.619 52.0835 726.999 153.432 726.999 278.012C726.999 402.593 625.619 503.941 500.999 503.941ZM500.999 63.1116C382.484 63.1116 286.032 159.497 286.032 278.012C286.032 396.527 382.447 492.913 500.999 492.913C619.552 492.913 715.967 396.527 715.967 278.012C715.967 159.497 619.515 63.1116 500.999 63.1116Z" fill="black"/>
<path d="M501.736 949.917C623.505 949.917 722.219 851.233 722.219 729.502C722.219 607.77 623.505 509.087 501.736 509.087C379.966 509.087 281.252 607.77 281.252 729.502C281.252 851.233 379.966 949.917 501.736 949.917Z" fill="black"/>
</svg>
